Patient4_TMGait_0pt6_02_right_01_EMG.mot
version=1
nRows=27
nColumns=33
inDegrees=no
endheader
time	1LAddLong	2LGlutMax	3LGlutMed	4LIliopsoas	5LSemiMemb	6LBicFemLong	7LRecFem	8LVastMed	9LVastLat	10LGasMed	11LTibAnt	12lTibPost	13LPeroneusLong	14LSol	15LExtDigLong	16LFlexDigLong	17RAddLong	18RGlutMax	19RGlutMed	20RIliopsoas	21RSemiMemb	22RBicFemLong	23RRecFem	24RVastMed	25RVastLat	26RGasMed	27RTibAnt	28RTibPost	29RPeroneusLong	30RSol	31RExtDigLong	32RFlexDigLong
1.39	0.003052	0.62592	0.00473	-0.018921	-0.038147	0.025482	-0.017853	0.007019	-0.1001	-0.28015	0.031586	0.006561	0.069122	-0.066528	0.029602	0.007782	-0.003052	-0.25177	0.059357	-0.041046	0.25726	-0.049744	-0.10269	0.056458	0.009308	0.051727	-0.10147	0.18356	-0.27603	0.14328	0.000763	0.000916
1.391	-0.001068	0.59311	0.015106	-0.002136	-0.013123	0.050354	-0.094757	0.009155	-0.084229	-0.27466	0.009003	0.000763	0.056	0.13886	0.032806	-0.000153	0.008698	-0.28091	0.57205	-0.029297	0.042572	-0.013733	-0.028229	-0.037537	-0.030365	0.074463	0.49789	-0.00473	0.12116	0.99014	0.001068	-0.005951
1.392	0.000305	0.57571	0.013733	0.007477	0.024567	0.039978	-0.10223	-0.001068	0.029297	-0.16785	-0.016785	0.004578	0.06485	0.13916	-0.002441	-0.001221	0.045624	-0.32242	0.29587	0.021515	-0.045319	-0.09613	0.072021	-0.052338	-0.043793	-0.001526	0.7106	-0.17548	0.38177	0.21637	0.000305	-0.010223
1.393	0.017853	0.58105	0.006256	0.013733	0.028534	-0.003052	-0.055237	-0.014038	0.14145	-0.13016	-0.018463	0.003662	-0.000763	0.1741	-0.019531	-0.005341	0.063171	-0.18845	-0.052338	0.024872	0.018921	-0.2652	-0.068207	-0.083923	-0.062714	-0.045776	0.56976	0.22125	0.35538	-0.12146	0.00412	-0.009918
1.394	0.028076	0.50079	0.019836	-0.007782	-0.009918	-0.049744	-0.01358	-0.007782	0.068207	-0.057678	-0.012054	-0.000916	0.039978	0.094147	-0.028381	0.007477	0.031738	-0.19669	-0.24048	-0.012817	0.10071	-0.36011	-0.25543	-0.089417	-0.011597	-0.10544	0.27298	0.011902	-0.2214	-0.13657	0.003052	-0.008392
1.395	0.013123	0.38315	0.024567	-0.001678	-0.009613	-0.019836	0.011902	0.007019	-0.001831	0.014496	-0.011292	-0.011292	0.068512	0.099335	-0.010681	0.00885	0.067291	-0.26321	0.065918	-0.047913	0.25253	-0.25055	-0.37323	-0.10376	-0.023193	-0.1001	-0.37949	-0.35629	-0.40298	-0.46188	0	-0.014954
1.396	0.007629	0.3183	0.032501	0.030212	0.013123	-0.003662	0.021515	0.01236	-0.002136	0.053406	-0.00946	0.003052	0.080719	0.043488	-0.007782	0.001068	0.084076	-0.25864	0.041809	-0.015106	-0.10437	-0.009155	-0.24643	-0.07431	-0.031281	0.017548	-0.49744	-0.027008	-0.079956	-0.36057	0.009308	-0.020599
1.397	-0.001526	0.31723	0.026855	0.015717	-0.003357	0.053558	-0.021667	0.017395	0.025635	0.068665	-0.001221	-0.000305	0.08667	0.004883	0.004425	0.000153	0.12741	-0.27649	-0.13718	-0.037842	-0.28076	0.23697	-0.079498	-0.097504	0.046844	0.092468	-0.14389	-0.061951	0.10864	-0.51712	-0.001678	-0.010986
1.398	0.001526	0.33493	0.016785	0.014343	-0.043793	0.092316	-0.00351	0.023346	0.006866	0.18066	-0.000916	-0.004425	0.076752	0.056763	0.023499	0.00061	0.078888	-0.2681	-0.1831	-0.046082	-0.19134	0.3273	-0.056305	-0.033264	-0.023651	0.056763	-0.1593	0.14069	-0.058746	-0.87647	0.00061	-0.014038
1.399	0.003967	0.25528	0.013123	-0.004883	-0.05661	0.14328	-0.023193	0.029144	0.024261	0.30426	-0.003357	-0.004272	0.072327	-0.009155	0.030212	0.001678	-0.005493	-0.21286	-0.17822	0.007019	0.11383	0.45502	-0.17853	0.017548	0.000305	0.13855	-0.21988	0.26108	-0.26306	-0.95673	0	-0.015411
1.4	0.00885	0.21942	0.003967	-0.000153	0.000153	0.15625	-0.02121	0.006714	0.05661	0.37277	-0.00473	-0.004578	0.071716	-0.014038	0.017853	0.010071	0.022736	-0.16174	-0.29266	-0.000763	0.29312	0.085754	-0.16159	-0.089874	-0.07309	0.14465	-0.12482	0.17288	-0.84869	-0.60181	0.009308	-0.015564
1.401	0.025482	0.21896	0.016632	-0.003662	0.033569	0.14511	0.030518	-0.004425	0.067139	0.043182	0.011902	-0.023499	0.029144	-0.011902	0.004272	0.006714	0.12222	-0.17181	0.36514	-0.044556	0.091095	-0.21622	-0.37598	-0.2742	-0.097504	0.093536	-0.059052	0.021667	-0.64041	-0.19134	-0.001068	-0.015259
1.402	0.039825	0.15564	0.003052	0.007477	-0.001373	0.16388	0.055084	-0.010071	0.032501	-0.24353	0.016479	0.030365	0.018463	-0.1033	0.013885	-0.013123	0.10971	-0.095367	0.1004	0.00885	-0.25864	-0.35202	-0.46448	-0.20279	-0.072632	0.055084	-0.025024	-0.11093	-0.6572	0.27985	-0.000916	-0.001984
1.403	0.029602	0.072937	0.005035	0.006714	0.018463	0.093231	0.035553	-0.013885	0.056458	-0.22858	0.011749	0.016785	0.023499	-0.098724	0.023804	-0.019989	-0.031128	-0.12833	-0.18677	0.063782	0.26962	-0.46417	-0.37598	-0.043793	0.051422	0.007477	-0.044403	-0.35523	-0.64529	0.61935	0.001526	-0.001373
1.404	0.020752	0.019073	0.020905	0.009613	0.019531	0.016632	-0.000763	-0.017395	0.055847	-0.088501	0.000763	0.018616	0.014496	-0.17197	0.017242	-0.019836	-0.15137	-0.09613	-0.1622	0.018616	0.3302	-0.47409	-0.31845	0.11795	0.1384	0.005188	-0.072784	0.25848	0.33234	0.63019	0.005798	-0.002441
1.405	-0.001526	-0.04837	0.029297	0.003967	-0.072174	-0.11673	0.06424	-0.014801	0.039825	0.040588	0.009613	0.018463	0.048981	-0.23163	0.028839	0.021057	-0.11566	-0.099487	-0.18951	-0.049896	-0.11993	-0.17578	-0.18143	0.1683	0.050964	-0.009918	-0.10651	0.085297	0.41565	0.41031	0.002441	-0.014496
1.406	-0.008545	-0.050964	0.018768	0.00061	-0.11612	-0.28458	0.094299	-0.018158	0.050354	0.16129	0.006409	0.00351	0.084381	-0.079193	-0.010986	0.028534	-0.088806	-0.11505	0.41855	-0.034637	-0.037537	0.076752	-0.24811	0.27329	0.005646	-0.021515	0.01236	-0.055237	-0.14252	0.84778	-0.001526	-0.014801
1.407	-0.005188	-0.10849	0.014801	0.002747	-0.093384	-0.48172	0.070496	-0.010376	0.076447	0.11765	-0.006714	-0.013733	0.04776	0.12604	-0.039368	0.066528	-0.056763	-0.14725	0.10712	0.000458	0.44235	0.10895	-0.25757	0.29648	-0.005188	-0.035095	0.036621	0.062256	-0.39612	1.059	0	-0.016327
1.408	0.007477	-0.12924	-0.006104	-0.003052	-0.050201	-0.44937	0.041962	-0.013733	0.078583	0.23407	-0.016022	-0.006561	-0.036774	0.21774	-0.020905	0.017242	0.012512	-0.052795	0.2211	-0.00351	0.15869	0.25711	-0.079041	0.18188	-0.039063	-0.058136	0.053558	0.067596	-0.40756	0.61584	-0.001678	-0.02655
1.409	0.042419	-0.15976	0.015869	0.003967	0.023193	-0.36819	0.013275	-0.015564	0.08667	-0.19989	-0.007629	0.002441	-0.051727	0.27603	-0.002441	-0.083618	0.02655	-0.14358	0.27786	-0.017395	0.12146	0.27466	-0.019836	0.11124	-0.066986	-0.065002	0.054779	-0.18692	-0.18082	-0.30716	0.001831	-0.028381
1.41	0.054932	-0.26596	0.023193	0.001831	0.075226	-0.23621	0.061035	-0.006561	0.079193	-0.42023	0.001221	-0.011444	0.12726	0.36514	0.006714	0.017242	0.019226	-0.15015	0.14404	-0.00824	0.31998	0.11444	0.002136	0.05127	-0.074615	-0.050964	-0.004883	-0.017242	0.4361	-0.90408	0.005188	-0.020142
1.411	0.057526	-0.21591	0.018311	0.009918	0.16312	-0.11154	0.09552	0.00061	0.046387	-0.30029	-0.021973	-0.006256	0.17578	0.27679	0.015717	0.10956	0.065002	-0.13016	0.18005	0	0.13077	0.1944	0.059662	-0.099945	-0.084381	-0.041962	-0.054626	0.25681	0.73822	0.16754	0.000153	-0.014343
1.412	0.040436	-0.27679	0.026703	-0.003815	0.14725	-0.051575	0.097809	0.011139	0.025024	-0.032501	0.028687	-0.016632	-0.16037	-0.26489	-0.001526	-0.49149	0.076599	-0.19211	0.12878	-0.010376	0.1236	0.12222	0.00061	-0.12817	-0.00351	-0.028076	-0.073242	-0.060883	0.82504	0.8403	-0.000916	-0.008545
1.413	0.022888	-0.31326	0.041656	-0.007782	0.091248	0.014343	0.097351	0.007782	0.030212	0.25024	0.027161	-0.0354	-0.02594	-0.72678	0.016785	0.0737	0.071259	-0.24109	0.007019	-0.028687	0.083466	0.029144	0.068665	-0.2507	-0.027313	-0.00412	0.001831	0.0383	0.6308	1.2527	-0.006714	-0.010834
1.414	0.014191	-0.34042	0.03418	-0.023499	0.081329	0.076904	0.11124	-0.005035	0.010376	0.025177	-0.016022	-0.021515	0.24139	-0.5928	0.017395	0.11215	0.079498	-0.19775	-0.097351	-0.042267	-0.050964	-0.076599	0.10452	-0.25482	-0.053558	0.002594	0.014191	-0.14404	0.3949	1.5637	-0.004578	-0.010223
1.415	0.003967	-0.2446	0.040436	0.014496	0.043793	0.12619	0.15106	-0.014496	-0.023346	-0.21606	-0.003967	-0.031738	0.36697	-0.37247	-0.005188	0.004578	0.079346	-0.13184	0.19577	-0.01709	-0.35111	-0.086823	0.089417	-0.24429	-0.10834	-0.017548	0.2948	0.16922	0.025177	1.7139	-0.001373	-0.001068
1.416	0.002289	-0.22827	0.042267	0.032043	0.007019	0.15915	0.121	-0.011444	-0.081482	-0.066986	-0.006256	-0.045471	-0.1535	-0.47943	-0.028992	-0.031128	0.053864	-0.17716	0.41214	-0.034485	-0.18356	-0.086823	0.064087	-0.24384	-0.12817	-0.022888	0.61844	0.15366	-0.096436	1.8761	-0.003662	0.001831
